<svg xmlns="http://www.w3.org/2000/svg" xmlns:xlink="http://www.w3.org/1999/xlink" width="500" zoomAndPan="magnify" viewBox="0 0 375 374.999991" height="500" preserveAspectRatio="xMidYMid meet" version="1.0"><defs><g/><clipPath id="94be3637ec"><path d="M 234.117188 197.035156 L 265.617188 197.035156 L 265.617188 228.535156 L 234.117188 228.535156 Z M 234.117188 197.035156 " clip-rule="nonzero"/></clipPath></defs><rect x="-37.5" width="450" fill="#ffffff" y="-37.499999" height="449.999989" fill-opacity="1"/><rect x="-37.5" width="450" fill="#ffffff" y="-37.499999" height="449.999989" fill-opacity="1"/><path stroke-linecap="butt" transform="matrix(0.75, 0, 0, 0.75, 85.313245, 2.891016)" fill="none" stroke-linejoin="miter" d="M 155.525058 186.614074 L 115.983389 186.614074 L 119.103181 172.015114 L 109.181305 172.015114 L 81.545887 298.858873 L 41.863592 298.858873 L 69.639636 172.015114 L 51.077135 172.015114 L 27.264633 141.686987 L 165.306309 141.686987 Z M 155.525058 186.614074 " stroke="#ffffff" stroke-width="11.247381" stroke-opacity="1" stroke-miterlimit="4"/><g fill="#000000" fill-opacity="1"><g transform="translate(105.656994, 227.141002)"><g><path d="M 96.296875 -84.296875 L 66.640625 -84.296875 L 68.984375 -95.234375 L 61.546875 -95.234375 L 40.8125 -0.109375 L 11.046875 -0.109375 L 31.890625 -95.234375 L 17.96875 -95.234375 L 0.109375 -117.984375 L 103.640625 -117.984375 Z M 96.296875 -84.296875 "/></g></g></g><path stroke-linecap="butt" transform="matrix(0.75, 0, 0, 0.75, 168.685203, 2.891016)" fill="none" stroke-linejoin="miter" d="M 10.060355 298.858873 L 39.680149 163.655739 L 22.961397 141.686987 L 142.857239 141.686987 C 143.992655 141.686987 145.169739 142.067196 146.398906 142.822404 C 146.966614 143.291154 147.508281 143.744279 148.029114 144.166154 C 148.549947 144.593238 149.044739 145.088029 149.518697 145.655738 C 150.461406 146.598446 151.216614 147.733863 151.784323 149.05678 C 152.352031 150.093238 152.539531 151.08803 152.352031 152.030738 L 138.888488 213.114076 L 119.47182 223.035951 L 134.638488 232.671368 L 122.450987 288.509914 C 122.357237 289.270331 121.742654 290.259914 120.607237 291.489081 C 120.039529 292.150539 119.47182 292.765122 118.904112 293.332831 C 118.341612 293.900539 117.680154 294.416164 116.919737 294.890123 C 116.164529 295.457831 115.435362 295.952623 114.727029 296.379706 C 114.018695 296.801581 113.28432 297.249498 112.529112 297.723456 C 110.825987 298.478664 109.456195 298.858873 108.419736 298.858873 Z M 108.279111 172.015114 L 77.383276 172.015114 L 71.289526 200.218241 L 60.091608 207.447408 L 65.477025 226.577618 L 56.263483 268.530746 L 87.299943 268.530746 L 94.529111 235.364077 L 78.799943 243.160952 L 69.727026 211.1297 L 104.023903 191.431782 Z M 108.279111 172.015114 " stroke="#ffffff" stroke-width="11.247381" stroke-opacity="1" stroke-miterlimit="4"/><g fill="#1791c8" fill-opacity="1"><g transform="translate(168.685203, 227.141002)"><g><path d="M 7.546875 -0.109375 L 29.765625 -101.515625 L 17.21875 -117.984375 L 107.140625 -117.984375 C 107.992188 -117.984375 108.878906 -117.703125 109.796875 -117.140625 C 110.222656 -116.785156 110.628906 -116.445312 111.015625 -116.125 C 111.410156 -115.800781 111.785156 -115.429688 112.140625 -115.015625 C 112.847656 -114.304688 113.414062 -113.453125 113.84375 -112.453125 C 114.269531 -111.671875 114.410156 -110.925781 114.265625 -110.21875 L 104.171875 -64.40625 L 89.609375 -56.96875 L 100.984375 -49.75 L 91.84375 -7.859375 C 91.769531 -7.296875 91.304688 -6.554688 90.453125 -5.640625 C 90.023438 -5.140625 89.597656 -4.675781 89.171875 -4.25 C 88.753906 -3.820312 88.257812 -3.429688 87.6875 -3.078125 C 87.125 -2.648438 86.578125 -2.273438 86.046875 -1.953125 C 85.515625 -1.640625 84.960938 -1.304688 84.390625 -0.953125 C 83.117188 -0.390625 82.09375 -0.109375 81.3125 -0.109375 Z M 81.203125 -95.234375 L 58.03125 -95.234375 L 53.46875 -74.09375 L 45.0625 -68.671875 L 49.109375 -54.3125 L 42.203125 -22.859375 L 65.46875 -22.859375 L 70.890625 -47.71875 L 59.09375 -41.875 L 52.296875 -65.90625 L 78.015625 -80.671875 Z M 81.203125 -95.234375 "/></g></g></g><g clip-path="url(#94be3637ec)"><path stroke-linecap="butt" transform="matrix(0.0823745, 0, 0, 0.0823745, 234.118568, 197.033965)" fill-opacity="1" fill="#00d300" fill-rule="nonzero" stroke-linejoin="miter" d="M 191.230663 381.940261 C 85.90943 381.940261 0.504864 296.535695 0.504864 191.214461 C 0.504864 85.893228 85.90943 0.488662 191.230663 0.488662 C 296.551897 0.488662 381.956463 85.893228 381.956463 191.214461 C 381.956463 296.535695 296.551897 381.940261 191.230663 381.940261 Z M 191.230663 381.940261 " stroke="#3fb24f" stroke-width="1" stroke-opacity="1" stroke-miterlimit="10"/></g><path fill="#ffffff" d="M 246.65625 222.585938 L 239.882812 213.789062 L 242.496094 211.78125 L 246.75 217.304688 L 257.28125 204.574219 L 259.820312 206.675781 Z M 246.65625 222.585938 " fill-opacity="1" fill-rule="nonzero"/><g fill="#000000" fill-opacity="1"><g transform="translate(112.157849, 253.024893)"><g><path d="M 8.1875 -9.53125 C 8.207031 -7.550781 8.21875 -5.800781 8.21875 -4.28125 C 8.21875 -2.769531 8.195312 -1.484375 8.15625 -0.421875 C 7.195312 -0.265625 6.378906 -0.160156 5.703125 -0.109375 C 5.023438 -0.0546875 4.472656 -0.0507812 4.046875 -0.09375 C 4.023438 -1.539062 4.007812 -3.015625 4 -4.515625 C 3.988281 -6.015625 3.992188 -7.566406 4.015625 -9.171875 C 2.953125 -9.078125 1.78125 -8.976562 0.5 -8.875 C 0.445312 -9.445312 0.414062 -10.050781 0.40625 -10.6875 C 0.40625 -11.332031 0.429688 -12.023438 0.484375 -12.765625 C 2.460938 -12.992188 4.390625 -13.191406 6.265625 -13.359375 C 8.148438 -13.535156 10.007812 -13.6875 11.84375 -13.8125 C 11.894531 -12.613281 11.878906 -11.316406 11.796875 -9.921875 C 11.515625 -9.859375 10.3125 -9.726562 8.1875 -9.53125 Z M 8.1875 -9.53125 "/></g></g></g><g fill="#000000" fill-opacity="1"><g transform="translate(124.437663, 253.024893)"><g><path d="M 4.84375 -1.578125 C 4.789062 -1.328125 4.738281 -1.082031 4.6875 -0.84375 C 4.632812 -0.601562 4.578125 -0.359375 4.515625 -0.109375 C 2.535156 0.015625 1.164062 -0.0703125 0.40625 -0.375 C 1.28125 -3.65625 2.023438 -6.375 2.640625 -8.53125 C 3.253906 -10.695312 3.738281 -12.316406 4.09375 -13.390625 C 5.71875 -13.753906 7.191406 -13.890625 8.515625 -13.796875 C 9.265625 -11.878906 10 -9.890625 10.71875 -7.828125 C 11.4375 -5.773438 12.140625 -3.625 12.828125 -1.375 C 12.171875 -1 10.765625 -0.679688 8.609375 -0.421875 C 8.523438 -0.671875 8.453125 -0.914062 8.390625 -1.15625 C 8.328125 -1.394531 8.257812 -1.628906 8.1875 -1.859375 C 7.726562 -1.828125 7.222656 -1.785156 6.671875 -1.734375 C 6.128906 -1.679688 5.519531 -1.628906 4.84375 -1.578125 Z M 7.1875 -5.15625 C 7.03125 -5.695312 6.878906 -6.179688 6.734375 -6.609375 C 6.597656 -7.035156 6.472656 -7.40625 6.359375 -7.71875 C 6.242188 -7.269531 6.128906 -6.820312 6.015625 -6.375 C 5.898438 -5.925781 5.78125 -5.476562 5.65625 -5.03125 Z M 7.1875 -5.15625 "/></g></g></g><g fill="#000000" fill-opacity="1"><g transform="translate(137.677092, 253.024893)"><g><path d="M 4.140625 -4.6875 C 3.335938 -4.6875 2.660156 -4.867188 2.109375 -5.234375 C 1.378906 -5.765625 0.929688 -6.289062 0.765625 -6.8125 C 0.265625 -8.394531 0.4375 -9.847656 1.28125 -11.171875 C 2.957031 -13.554688 5.96875 -14.007812 10.3125 -12.53125 L 9.53125 -9.1875 C 5.957031 -9.957031 4.253906 -9.804688 4.421875 -8.734375 C 4.523438 -8.296875 4.882812 -8.113281 5.5 -8.1875 C 5.78125 -8.21875 6.054688 -8.238281 6.328125 -8.25 C 6.609375 -8.257812 6.875 -8.257812 7.125 -8.25 C 7.957031 -8.226562 8.632812 -8.035156 9.15625 -7.671875 C 9.90625 -7.160156 10.351562 -6.632812 10.5 -6.09375 C 11.019531 -4.519531 10.847656 -3.070312 9.984375 -1.75 C 8.296875 0.664062 5.101562 1.085938 0.40625 -0.484375 L 1.1875 -3.796875 C 5.113281 -3.078125 7.003906 -3.210938 6.859375 -4.203125 C 6.765625 -4.617188 6.410156 -4.800781 5.796875 -4.75 C 5.523438 -4.726562 5.253906 -4.710938 4.984375 -4.703125 C 4.710938 -4.691406 4.429688 -4.6875 4.140625 -4.6875 Z M 4.140625 -4.6875 "/></g></g></g><g fill="#000000" fill-opacity="1"><g transform="translate(148.883439, 253.024893)"><g><path d="M 8.625 -7.296875 C 8.957031 -6.929688 9.382812 -6.441406 9.90625 -5.828125 C 10.425781 -5.210938 11.050781 -4.472656 11.78125 -3.609375 C 11.5 -3.203125 11.113281 -2.722656 10.625 -2.171875 C 10.132812 -1.617188 9.535156 -1 8.828125 -0.3125 C 8.703125 -0.363281 7.695312 -1.5625 5.8125 -3.90625 C 5.613281 -3.675781 5.414062 -3.4375 5.21875 -3.1875 C 5.019531 -2.945312 4.816406 -2.703125 4.609375 -2.453125 C 4.597656 -2.085938 4.59375 -1.738281 4.59375 -1.40625 C 4.59375 -1.070312 4.601562 -0.75 4.625 -0.4375 C 3.269531 -0.21875 1.882812 -0.101562 0.46875 -0.09375 C 0.425781 -2.320312 0.40625 -4.507812 0.40625 -6.65625 C 0.414062 -8.8125 0.445312 -10.957031 0.5 -13.09375 C 1.15625 -13.207031 1.820312 -13.296875 2.5 -13.359375 C 3.1875 -13.429688 3.898438 -13.460938 4.640625 -13.453125 C 4.648438 -12.679688 4.65625 -11.941406 4.65625 -11.234375 C 4.65625 -10.523438 4.65625 -9.832031 4.65625 -9.15625 C 5.726562 -10.457031 7.007812 -12.019531 8.5 -13.84375 C 9.457031 -13.320312 10.5625 -12.460938 11.8125 -11.265625 C 11.625 -10.972656 10.5625 -9.648438 8.625 -7.296875 Z M 8.625 -7.296875 "/></g></g></g><g fill="#000000" fill-opacity="1"><g transform="translate(161.098371, 253.024893)"><g/></g></g><g fill="#1791c8" fill-opacity="1"><g transform="translate(182.840046, 253.024893)"><g><path d="M 0.5 -12.65625 C 0.988281 -12.90625 1.582031 -13.113281 2.28125 -13.28125 C 2.988281 -13.445312 3.804688 -13.59375 4.734375 -13.71875 C 7.691406 -14.03125 9.640625 -13.316406 10.578125 -11.578125 C 11.148438 -10.210938 10.710938 -8.875 9.265625 -7.5625 C 10.742188 -6.90625 11.484375 -6.03125 11.484375 -4.9375 C 11.484375 -3.863281 11.179688 -3.050781 10.578125 -2.5 C 10.421875 -2.34375 10.253906 -2.195312 10.078125 -2.0625 C 9.910156 -1.9375 9.734375 -1.8125 9.546875 -1.6875 C 7.890625 -0.75 6 -0.238281 3.875 -0.15625 C 3.5625 -0.125 3.125 -0.0976562 2.5625 -0.078125 C 2 -0.0664062 1.3125 -0.0546875 0.5 -0.046875 C 0.394531 -4.078125 0.394531 -8.28125 0.5 -12.65625 Z M 3.890625 -3.53125 C 6.015625 -3.445312 7.054688 -3.914062 7.015625 -4.9375 C 6.910156 -5.363281 6.628906 -5.597656 6.171875 -5.640625 C 5.578125 -5.734375 4.800781 -5.628906 3.84375 -5.328125 C 3.820312 -4.660156 3.835938 -4.0625 3.890625 -3.53125 Z M 3.921875 -8.4375 C 5.691406 -8.4375 6.523438 -8.84375 6.421875 -9.65625 C 6.367188 -10.039062 6.15625 -10.269531 5.78125 -10.34375 C 5.488281 -10.382812 5.179688 -10.390625 4.859375 -10.359375 C 4.546875 -10.328125 4.207031 -10.269531 3.84375 -10.1875 C 3.84375 -9.882812 3.847656 -9.585938 3.859375 -9.296875 C 3.867188 -9.003906 3.890625 -8.71875 3.921875 -8.4375 Z M 3.921875 -8.4375 "/></g></g></g><g fill="#1791c8" fill-opacity="1"><g transform="translate(194.729509, 253.024893)"><g><path d="M 4.84375 -1.578125 C 4.789062 -1.328125 4.738281 -1.082031 4.6875 -0.84375 C 4.632812 -0.601562 4.578125 -0.359375 4.515625 -0.109375 C 2.535156 0.015625 1.164062 -0.0703125 0.40625 -0.375 C 1.28125 -3.65625 2.023438 -6.375 2.640625 -8.53125 C 3.253906 -10.695312 3.738281 -12.316406 4.09375 -13.390625 C 5.71875 -13.753906 7.191406 -13.890625 8.515625 -13.796875 C 9.265625 -11.878906 10 -9.890625 10.71875 -7.828125 C 11.4375 -5.773438 12.140625 -3.625 12.828125 -1.375 C 12.171875 -1 10.765625 -0.679688 8.609375 -0.421875 C 8.523438 -0.671875 8.453125 -0.914062 8.390625 -1.15625 C 8.328125 -1.394531 8.257812 -1.628906 8.1875 -1.859375 C 7.726562 -1.828125 7.222656 -1.785156 6.671875 -1.734375 C 6.128906 -1.679688 5.519531 -1.628906 4.84375 -1.578125 Z M 7.1875 -5.15625 C 7.03125 -5.695312 6.878906 -6.179688 6.734375 -6.609375 C 6.597656 -7.035156 6.472656 -7.40625 6.359375 -7.71875 C 6.242188 -7.269531 6.128906 -6.820312 6.015625 -6.375 C 5.898438 -5.925781 5.78125 -5.476562 5.65625 -5.03125 Z M 7.1875 -5.15625 "/></g></g></g><g fill="#1791c8" fill-opacity="1"><g transform="translate(207.968938, 253.024893)"><g><path d="M 4.140625 -4.6875 C 3.335938 -4.6875 2.660156 -4.867188 2.109375 -5.234375 C 1.378906 -5.765625 0.929688 -6.289062 0.765625 -6.8125 C 0.265625 -8.394531 0.4375 -9.847656 1.28125 -11.171875 C 2.957031 -13.554688 5.96875 -14.007812 10.3125 -12.53125 L 9.53125 -9.1875 C 5.957031 -9.957031 4.253906 -9.804688 4.421875 -8.734375 C 4.523438 -8.296875 4.882812 -8.113281 5.5 -8.1875 C 5.78125 -8.21875 6.054688 -8.238281 6.328125 -8.25 C 6.609375 -8.257812 6.875 -8.257812 7.125 -8.25 C 7.957031 -8.226562 8.632812 -8.035156 9.15625 -7.671875 C 9.90625 -7.160156 10.351562 -6.632812 10.5 -6.09375 C 11.019531 -4.519531 10.847656 -3.070312 9.984375 -1.75 C 8.296875 0.664062 5.101562 1.085938 0.40625 -0.484375 L 1.1875 -3.796875 C 5.113281 -3.078125 7.003906 -3.210938 6.859375 -4.203125 C 6.765625 -4.617188 6.410156 -4.800781 5.796875 -4.75 C 5.523438 -4.726562 5.253906 -4.710938 4.984375 -4.703125 C 4.710938 -4.691406 4.429688 -4.6875 4.140625 -4.6875 Z M 4.140625 -4.6875 "/></g></g></g><g fill="#1791c8" fill-opacity="1"><g transform="translate(219.175285, 253.024893)"><g><path d="M 8.625 -7.296875 C 8.957031 -6.929688 9.382812 -6.441406 9.90625 -5.828125 C 10.425781 -5.210938 11.050781 -4.472656 11.78125 -3.609375 C 11.5 -3.203125 11.113281 -2.722656 10.625 -2.171875 C 10.132812 -1.617188 9.535156 -1 8.828125 -0.3125 C 8.703125 -0.363281 7.695312 -1.5625 5.8125 -3.90625 C 5.613281 -3.675781 5.414062 -3.4375 5.21875 -3.1875 C 5.019531 -2.945312 4.816406 -2.703125 4.609375 -2.453125 C 4.597656 -2.085938 4.59375 -1.738281 4.59375 -1.40625 C 4.59375 -1.070312 4.601562 -0.75 4.625 -0.4375 C 3.269531 -0.21875 1.882812 -0.101562 0.46875 -0.09375 C 0.425781 -2.320312 0.40625 -4.507812 0.40625 -6.65625 C 0.414062 -8.8125 0.445312 -10.957031 0.5 -13.09375 C 1.15625 -13.207031 1.820312 -13.296875 2.5 -13.359375 C 3.1875 -13.429688 3.898438 -13.460938 4.640625 -13.453125 C 4.648438 -12.679688 4.65625 -11.941406 4.65625 -11.234375 C 4.65625 -10.523438 4.65625 -9.832031 4.65625 -9.15625 C 5.726562 -10.457031 7.007812 -12.019531 8.5 -13.84375 C 9.457031 -13.320312 10.5625 -12.460938 11.8125 -11.265625 C 11.625 -10.972656 10.5625 -9.648438 8.625 -7.296875 Z M 8.625 -7.296875 "/></g></g></g><g fill="#1791c8" fill-opacity="1"><g transform="translate(231.390041, 253.024893)"><g><path d="M 9.640625 -13.34375 C 9.703125 -12.71875 9.726562 -12.109375 9.71875 -11.515625 C 9.707031 -10.921875 9.675781 -10.335938 9.625 -9.765625 L 4.328125 -9.25 L 4.34375 -8 L 9.4375 -8.4375 L 9.4375 -5.015625 C 9.332031 -4.992188 8.859375 -4.941406 8.015625 -4.859375 C 7.179688 -4.785156 5.972656 -4.675781 4.390625 -4.53125 L 4.40625 -3.34375 C 7.695312 -3.726562 9.445312 -3.910156 9.65625 -3.890625 C 9.757812 -2.492188 9.757812 -1.328125 9.65625 -0.390625 C 7.507812 -0.0664062 4.457031 0.191406 0.5 0.390625 C 0.445312 -1.554688 0.414062 -3.597656 0.40625 -5.734375 C 0.40625 -7.867188 0.429688 -10.109375 0.484375 -12.453125 C 3.984375 -12.941406 7.035156 -13.238281 9.640625 -13.34375 Z M 9.640625 -13.34375 "/></g></g></g><g fill="#1791c8" fill-opacity="1"><g transform="translate(241.539186, 253.024893)"><g><path d="M 8.1875 -9.53125 C 8.207031 -7.550781 8.21875 -5.800781 8.21875 -4.28125 C 8.21875 -2.769531 8.195312 -1.484375 8.15625 -0.421875 C 7.195312 -0.265625 6.378906 -0.160156 5.703125 -0.109375 C 5.023438 -0.0546875 4.472656 -0.0507812 4.046875 -0.09375 C 4.023438 -1.539062 4.007812 -3.015625 4 -4.515625 C 3.988281 -6.015625 3.992188 -7.566406 4.015625 -9.171875 C 2.953125 -9.078125 1.78125 -8.976562 0.5 -8.875 C 0.445312 -9.445312 0.414062 -10.050781 0.40625 -10.6875 C 0.40625 -11.332031 0.429688 -12.023438 0.484375 -12.765625 C 2.460938 -12.992188 4.390625 -13.191406 6.265625 -13.359375 C 8.148438 -13.535156 10.007812 -13.6875 11.84375 -13.8125 C 11.894531 -12.613281 11.878906 -11.316406 11.796875 -9.921875 C 11.515625 -9.859375 10.3125 -9.726562 8.1875 -9.53125 Z M 8.1875 -9.53125 "/></g></g></g></svg>